<mxfile host="app.diagrams.net" modified="2023-04-10T15:49:48.042Z" agent="Mozilla/5.0 (Windows NT 10.0; Win64; x64) AppleWebKit/537.36 (KHTML, like Gecko) Chrome/111.0.0.0 Safari/537.36" etag="e4ze0aHSVznpI2yOjDaQ" version="21.1.5" type="device">
  <diagram name="Страница-1" id="Page-1">
    <mxGraphModel dx="1434" dy="796" grid="1" gridSize="10" guides="1" tooltips="1" connect="1" arrows="1" fold="1" page="1" pageScale="1" pageWidth="1169" pageHeight="827" math="0" shadow="0">
      <root>
        <mxCell id="0" />
        <mxCell id="1" value="Соединительная линия" parent="0" />
        <mxCell id="zsV1o42NMVgyYvkbm9ST-91" value="tags" style="shape=table;startSize=30;container=1;collapsible=1;childLayout=tableLayout;fixedRows=1;rowLines=0;fontStyle=1;align=center;resizeLast=1;html=1;" parent="1" vertex="1">
          <mxGeometry x="900" y="160" width="180" height="120" as="geometry" />
        </mxCell>
        <mxCell id="zsV1o42NMVgyYvkbm9ST-92" value="" style="shape=tableRow;horizontal=0;startSize=0;swimlaneHead=0;swimlaneBody=0;fillColor=none;collapsible=0;dropTarget=0;points=[[0,0.5],[1,0.5]];portConstraint=eastwest;top=0;left=0;right=0;bottom=1;" parent="zsV1o42NMVgyYvkbm9ST-91" vertex="1">
          <mxGeometry y="30" width="180" height="30" as="geometry" />
        </mxCell>
        <mxCell id="zsV1o42NMVgyYvkbm9ST-93" value="PK" style="shape=partialRectangle;connectable=0;fillColor=none;top=0;left=0;bottom=0;right=0;fontStyle=1;overflow=hidden;whiteSpace=wrap;html=1;" parent="zsV1o42NMVgyYvkbm9ST-92" vertex="1">
          <mxGeometry width="30" height="30" as="geometry">
            <mxRectangle width="30" height="30" as="alternateBounds" />
          </mxGeometry>
        </mxCell>
        <mxCell id="zsV1o42NMVgyYvkbm9ST-94" value="id" style="shape=partialRectangle;connectable=0;fillColor=none;top=0;left=0;bottom=0;right=0;align=left;spacingLeft=6;fontStyle=5;overflow=hidden;whiteSpace=wrap;html=1;" parent="zsV1o42NMVgyYvkbm9ST-92" vertex="1">
          <mxGeometry x="30" width="150" height="30" as="geometry">
            <mxRectangle width="150" height="30" as="alternateBounds" />
          </mxGeometry>
        </mxCell>
        <mxCell id="zsV1o42NMVgyYvkbm9ST-95" value="" style="shape=tableRow;horizontal=0;startSize=0;swimlaneHead=0;swimlaneBody=0;fillColor=none;collapsible=0;dropTarget=0;points=[[0,0.5],[1,0.5]];portConstraint=eastwest;top=0;left=0;right=0;bottom=0;" parent="zsV1o42NMVgyYvkbm9ST-91" vertex="1">
          <mxGeometry y="60" width="180" height="30" as="geometry" />
        </mxCell>
        <mxCell id="zsV1o42NMVgyYvkbm9ST-96" value="" style="shape=partialRectangle;connectable=0;fillColor=none;top=0;left=0;bottom=0;right=0;editable=1;overflow=hidden;whiteSpace=wrap;html=1;" parent="zsV1o42NMVgyYvkbm9ST-95" vertex="1">
          <mxGeometry width="30" height="30" as="geometry">
            <mxRectangle width="30" height="30" as="alternateBounds" />
          </mxGeometry>
        </mxCell>
        <mxCell id="zsV1o42NMVgyYvkbm9ST-97" value="tag" style="shape=partialRectangle;connectable=0;fillColor=none;top=0;left=0;bottom=0;right=0;align=left;spacingLeft=6;overflow=hidden;whiteSpace=wrap;html=1;" parent="zsV1o42NMVgyYvkbm9ST-95" vertex="1">
          <mxGeometry x="30" width="150" height="30" as="geometry">
            <mxRectangle width="150" height="30" as="alternateBounds" />
          </mxGeometry>
        </mxCell>
        <mxCell id="zsV1o42NMVgyYvkbm9ST-98" value="" style="shape=tableRow;horizontal=0;startSize=0;swimlaneHead=0;swimlaneBody=0;fillColor=none;collapsible=0;dropTarget=0;points=[[0,0.5],[1,0.5]];portConstraint=eastwest;top=0;left=0;right=0;bottom=0;" parent="zsV1o42NMVgyYvkbm9ST-91" vertex="1">
          <mxGeometry y="90" width="180" height="30" as="geometry" />
        </mxCell>
        <mxCell id="zsV1o42NMVgyYvkbm9ST-99" value="" style="shape=partialRectangle;connectable=0;fillColor=none;top=0;left=0;bottom=0;right=0;editable=1;overflow=hidden;whiteSpace=wrap;html=1;" parent="zsV1o42NMVgyYvkbm9ST-98" vertex="1">
          <mxGeometry width="30" height="30" as="geometry">
            <mxRectangle width="30" height="30" as="alternateBounds" />
          </mxGeometry>
        </mxCell>
        <mxCell id="zsV1o42NMVgyYvkbm9ST-100" value="value" style="shape=partialRectangle;connectable=0;fillColor=none;top=0;left=0;bottom=0;right=0;align=left;spacingLeft=6;overflow=hidden;whiteSpace=wrap;html=1;" parent="zsV1o42NMVgyYvkbm9ST-98" vertex="1">
          <mxGeometry x="30" width="150" height="30" as="geometry">
            <mxRectangle width="150" height="30" as="alternateBounds" />
          </mxGeometry>
        </mxCell>
        <mxCell id="zsV1o42NMVgyYvkbm9ST-101" value="host_tag" style="shape=table;startSize=30;container=1;collapsible=1;childLayout=tableLayout;fixedRows=1;rowLines=0;fontStyle=1;align=center;resizeLast=1;html=1;" parent="1" vertex="1">
          <mxGeometry x="641" y="60" width="180" height="90" as="geometry" />
        </mxCell>
        <mxCell id="zsV1o42NMVgyYvkbm9ST-108" value="" style="shape=tableRow;horizontal=0;startSize=0;swimlaneHead=0;swimlaneBody=0;fillColor=none;collapsible=0;dropTarget=0;points=[[0,0.5],[1,0.5]];portConstraint=eastwest;top=0;left=0;right=0;bottom=0;" parent="zsV1o42NMVgyYvkbm9ST-101" vertex="1">
          <mxGeometry y="30" width="180" height="30" as="geometry" />
        </mxCell>
        <mxCell id="zsV1o42NMVgyYvkbm9ST-109" value="" style="shape=partialRectangle;connectable=0;fillColor=none;top=0;left=0;bottom=0;right=0;editable=1;overflow=hidden;whiteSpace=wrap;html=1;" parent="zsV1o42NMVgyYvkbm9ST-108" vertex="1">
          <mxGeometry width="30" height="30" as="geometry">
            <mxRectangle width="30" height="30" as="alternateBounds" />
          </mxGeometry>
        </mxCell>
        <mxCell id="zsV1o42NMVgyYvkbm9ST-110" value="host_id" style="shape=partialRectangle;connectable=0;fillColor=none;top=0;left=0;bottom=0;right=0;align=left;spacingLeft=6;overflow=hidden;whiteSpace=wrap;html=1;" parent="zsV1o42NMVgyYvkbm9ST-108" vertex="1">
          <mxGeometry x="30" width="150" height="30" as="geometry">
            <mxRectangle width="150" height="30" as="alternateBounds" />
          </mxGeometry>
        </mxCell>
        <mxCell id="zsV1o42NMVgyYvkbm9ST-105" value="" style="shape=tableRow;horizontal=0;startSize=0;swimlaneHead=0;swimlaneBody=0;fillColor=none;collapsible=0;dropTarget=0;points=[[0,0.5],[1,0.5]];portConstraint=eastwest;top=0;left=0;right=0;bottom=0;" parent="zsV1o42NMVgyYvkbm9ST-101" vertex="1">
          <mxGeometry y="60" width="180" height="30" as="geometry" />
        </mxCell>
        <mxCell id="zsV1o42NMVgyYvkbm9ST-106" value="" style="shape=partialRectangle;connectable=0;fillColor=none;top=0;left=0;bottom=0;right=0;editable=1;overflow=hidden;whiteSpace=wrap;html=1;" parent="zsV1o42NMVgyYvkbm9ST-105" vertex="1">
          <mxGeometry width="30" height="30" as="geometry">
            <mxRectangle width="30" height="30" as="alternateBounds" />
          </mxGeometry>
        </mxCell>
        <mxCell id="zsV1o42NMVgyYvkbm9ST-107" value="tag_id" style="shape=partialRectangle;connectable=0;fillColor=none;top=0;left=0;bottom=0;right=0;align=left;spacingLeft=6;overflow=hidden;whiteSpace=wrap;html=1;" parent="zsV1o42NMVgyYvkbm9ST-105" vertex="1">
          <mxGeometry x="30" width="150" height="30" as="geometry">
            <mxRectangle width="150" height="30" as="alternateBounds" />
          </mxGeometry>
        </mxCell>
        <mxCell id="zsV1o42NMVgyYvkbm9ST-142" value="" style="group" parent="1" vertex="1" connectable="0">
          <mxGeometry x="60" y="149.57" width="180" height="180" as="geometry" />
        </mxCell>
        <mxCell id="zsV1o42NMVgyYvkbm9ST-1" value="shops" style="shape=table;startSize=30;container=1;collapsible=1;childLayout=tableLayout;fixedRows=1;rowLines=0;fontStyle=1;align=center;resizeLast=1;html=1;" parent="zsV1o42NMVgyYvkbm9ST-142" vertex="1">
          <mxGeometry width="180" height="150" as="geometry" />
        </mxCell>
        <mxCell id="zsV1o42NMVgyYvkbm9ST-2" value="" style="shape=tableRow;horizontal=0;startSize=0;swimlaneHead=0;swimlaneBody=0;fillColor=none;collapsible=0;dropTarget=0;points=[[0,0.5],[1,0.5]];portConstraint=eastwest;top=0;left=0;right=0;bottom=1;" parent="zsV1o42NMVgyYvkbm9ST-1" vertex="1">
          <mxGeometry y="30" width="180" height="30" as="geometry" />
        </mxCell>
        <mxCell id="zsV1o42NMVgyYvkbm9ST-3" value="PK" style="shape=partialRectangle;connectable=0;fillColor=none;top=0;left=0;bottom=0;right=0;fontStyle=1;overflow=hidden;whiteSpace=wrap;html=1;" parent="zsV1o42NMVgyYvkbm9ST-2" vertex="1">
          <mxGeometry width="30" height="30" as="geometry">
            <mxRectangle width="30" height="30" as="alternateBounds" />
          </mxGeometry>
        </mxCell>
        <mxCell id="zsV1o42NMVgyYvkbm9ST-4" value="pid" style="shape=partialRectangle;connectable=0;fillColor=none;top=0;left=0;bottom=0;right=0;align=left;spacingLeft=6;fontStyle=5;overflow=hidden;whiteSpace=wrap;html=1;" parent="zsV1o42NMVgyYvkbm9ST-2" vertex="1">
          <mxGeometry x="30" width="150" height="30" as="geometry">
            <mxRectangle width="150" height="30" as="alternateBounds" />
          </mxGeometry>
        </mxCell>
        <mxCell id="zsV1o42NMVgyYvkbm9ST-5" value="" style="shape=tableRow;horizontal=0;startSize=0;swimlaneHead=0;swimlaneBody=0;fillColor=none;collapsible=0;dropTarget=0;points=[[0,0.5],[1,0.5]];portConstraint=eastwest;top=0;left=0;right=0;bottom=0;" parent="zsV1o42NMVgyYvkbm9ST-1" vertex="1">
          <mxGeometry y="60" width="180" height="30" as="geometry" />
        </mxCell>
        <mxCell id="zsV1o42NMVgyYvkbm9ST-6" value="" style="shape=partialRectangle;connectable=0;fillColor=none;top=0;left=0;bottom=0;right=0;editable=1;overflow=hidden;whiteSpace=wrap;html=1;" parent="zsV1o42NMVgyYvkbm9ST-5" vertex="1">
          <mxGeometry width="30" height="30" as="geometry">
            <mxRectangle width="30" height="30" as="alternateBounds" />
          </mxGeometry>
        </mxCell>
        <mxCell id="zsV1o42NMVgyYvkbm9ST-7" value="" style="shape=partialRectangle;connectable=0;fillColor=none;top=0;left=0;bottom=0;right=0;align=left;spacingLeft=6;overflow=hidden;whiteSpace=wrap;html=1;" parent="zsV1o42NMVgyYvkbm9ST-5" vertex="1">
          <mxGeometry x="30" width="150" height="30" as="geometry">
            <mxRectangle width="150" height="30" as="alternateBounds" />
          </mxGeometry>
        </mxCell>
        <mxCell id="zsV1o42NMVgyYvkbm9ST-8" value="" style="shape=tableRow;horizontal=0;startSize=0;swimlaneHead=0;swimlaneBody=0;fillColor=none;collapsible=0;dropTarget=0;points=[[0,0.5],[1,0.5]];portConstraint=eastwest;top=0;left=0;right=0;bottom=0;" parent="zsV1o42NMVgyYvkbm9ST-1" vertex="1">
          <mxGeometry y="90" width="180" height="60" as="geometry" />
        </mxCell>
        <mxCell id="zsV1o42NMVgyYvkbm9ST-9" value="" style="shape=partialRectangle;connectable=0;fillColor=none;top=0;left=0;bottom=0;right=0;editable=1;overflow=hidden;whiteSpace=wrap;html=1;" parent="zsV1o42NMVgyYvkbm9ST-8" vertex="1">
          <mxGeometry width="30" height="60" as="geometry">
            <mxRectangle width="30" height="60" as="alternateBounds" />
          </mxGeometry>
        </mxCell>
        <mxCell id="zsV1o42NMVgyYvkbm9ST-10" value="" style="shape=partialRectangle;connectable=0;fillColor=none;top=0;left=0;bottom=0;right=0;align=left;spacingLeft=6;overflow=hidden;whiteSpace=wrap;html=1;" parent="zsV1o42NMVgyYvkbm9ST-8" vertex="1">
          <mxGeometry x="30" width="150" height="60" as="geometry">
            <mxRectangle width="150" height="60" as="alternateBounds" />
          </mxGeometry>
        </mxCell>
        <mxCell id="zsV1o42NMVgyYvkbm9ST-137" value="shop" style="shape=partialRectangle;connectable=0;fillColor=none;top=0;left=0;bottom=0;right=0;align=left;spacingLeft=6;overflow=hidden;whiteSpace=wrap;html=1;" parent="zsV1o42NMVgyYvkbm9ST-142" vertex="1">
          <mxGeometry x="30" y="60" width="150" height="30" as="geometry">
            <mxRectangle width="150" height="30" as="alternateBounds" />
          </mxGeometry>
        </mxCell>
        <mxCell id="zsV1o42NMVgyYvkbm9ST-139" value="work_time" style="shape=partialRectangle;connectable=0;fillColor=none;top=0;left=0;bottom=0;right=0;align=left;spacingLeft=6;overflow=hidden;whiteSpace=wrap;html=1;" parent="zsV1o42NMVgyYvkbm9ST-142" vertex="1">
          <mxGeometry x="30" y="90" width="150" height="30" as="geometry">
            <mxRectangle width="150" height="30" as="alternateBounds" />
          </mxGeometry>
        </mxCell>
        <mxCell id="zsV1o42NMVgyYvkbm9ST-140" value="off_time" style="shape=partialRectangle;connectable=0;fillColor=none;top=0;left=0;bottom=0;right=0;align=left;spacingLeft=6;overflow=hidden;whiteSpace=wrap;html=1;" parent="zsV1o42NMVgyYvkbm9ST-142" vertex="1">
          <mxGeometry x="30" y="120" width="150" height="30" as="geometry">
            <mxRectangle width="150" height="30" as="alternateBounds" />
          </mxGeometry>
        </mxCell>
        <mxCell id="zsV1o42NMVgyYvkbm9ST-170" value="" style="shape=partialRectangle;connectable=0;fillColor=none;top=0;left=0;bottom=0;right=0;fontStyle=1;overflow=hidden;whiteSpace=wrap;html=1;" parent="zsV1o42NMVgyYvkbm9ST-142" vertex="1">
          <mxGeometry x="-1.4210854715202004e-14" y="120" width="30" height="30" as="geometry">
            <mxRectangle width="30" height="30" as="alternateBounds" />
          </mxGeometry>
        </mxCell>
        <mxCell id="zsV1o42NMVgyYvkbm9ST-171" value="" style="shape=partialRectangle;connectable=0;fillColor=none;top=0;left=0;bottom=0;right=0;fontStyle=1;overflow=hidden;whiteSpace=wrap;html=1;" parent="zsV1o42NMVgyYvkbm9ST-142" vertex="1">
          <mxGeometry x="-1.4210854715202004e-14" y="150" width="30" height="30" as="geometry">
            <mxRectangle width="30" height="30" as="alternateBounds" />
          </mxGeometry>
        </mxCell>
        <mxCell id="zsV1o42NMVgyYvkbm9ST-146" value="" style="endArrow=none;html=1;rounded=0;entryX=0.545;entryY=0.032;entryDx=0;entryDy=0;entryPerimeter=0;exitX=1;exitY=0.5;exitDx=0;exitDy=0;" parent="1" source="zsV1o42NMVgyYvkbm9ST-2" target="zsV1o42NMVgyYvkbm9ST-143" edge="1">
          <mxGeometry width="50" height="50" relative="1" as="geometry">
            <mxPoint x="350" y="285" as="sourcePoint" />
            <mxPoint x="350" y="440" as="targetPoint" />
          </mxGeometry>
        </mxCell>
        <mxCell id="zsV1o42NMVgyYvkbm9ST-147" value="" style="group" parent="1" vertex="1" connectable="0">
          <mxGeometry x="320" y="149.57" width="210" height="200" as="geometry" />
        </mxCell>
        <mxCell id="zsV1o42NMVgyYvkbm9ST-141" value="" style="group" parent="zsV1o42NMVgyYvkbm9ST-147" vertex="1" connectable="0">
          <mxGeometry x="30" width="180" height="200" as="geometry" />
        </mxCell>
        <mxCell id="zsV1o42NMVgyYvkbm9ST-65" value="hosts" style="shape=table;startSize=30;container=1;collapsible=1;childLayout=tableLayout;fixedRows=1;rowLines=0;fontStyle=1;align=center;resizeLast=1;html=1;" parent="zsV1o42NMVgyYvkbm9ST-141" vertex="1">
          <mxGeometry width="180" height="179.35000000000014" as="geometry" />
        </mxCell>
        <mxCell id="zsV1o42NMVgyYvkbm9ST-66" value="" style="shape=tableRow;horizontal=0;startSize=0;swimlaneHead=0;swimlaneBody=0;fillColor=none;collapsible=0;dropTarget=0;points=[[0,0.5],[1,0.5]];portConstraint=eastwest;top=0;left=0;right=0;bottom=1;" parent="zsV1o42NMVgyYvkbm9ST-65" vertex="1">
          <mxGeometry y="30" width="180" height="30" as="geometry" />
        </mxCell>
        <mxCell id="zsV1o42NMVgyYvkbm9ST-67" value="PK" style="shape=partialRectangle;connectable=0;fillColor=none;top=0;left=0;bottom=0;right=0;fontStyle=1;overflow=hidden;whiteSpace=wrap;html=1;" parent="zsV1o42NMVgyYvkbm9ST-66" vertex="1">
          <mxGeometry width="30" height="30" as="geometry">
            <mxRectangle width="30" height="30" as="alternateBounds" />
          </mxGeometry>
        </mxCell>
        <mxCell id="zsV1o42NMVgyYvkbm9ST-68" value="id" style="shape=partialRectangle;connectable=0;fillColor=none;top=0;left=0;bottom=0;right=0;align=left;spacingLeft=6;fontStyle=5;overflow=hidden;whiteSpace=wrap;html=1;" parent="zsV1o42NMVgyYvkbm9ST-66" vertex="1">
          <mxGeometry x="30" width="150" height="30" as="geometry">
            <mxRectangle width="150" height="30" as="alternateBounds" />
          </mxGeometry>
        </mxCell>
        <mxCell id="zsV1o42NMVgyYvkbm9ST-69" value="" style="shape=tableRow;horizontal=0;startSize=0;swimlaneHead=0;swimlaneBody=0;fillColor=none;collapsible=0;dropTarget=0;points=[[0,0.5],[1,0.5]];portConstraint=eastwest;top=0;left=0;right=0;bottom=0;" parent="zsV1o42NMVgyYvkbm9ST-65" vertex="1">
          <mxGeometry y="60" width="180" height="30" as="geometry" />
        </mxCell>
        <mxCell id="zsV1o42NMVgyYvkbm9ST-70" value="" style="shape=partialRectangle;connectable=0;fillColor=none;top=0;left=0;bottom=0;right=0;editable=1;overflow=hidden;whiteSpace=wrap;html=1;" parent="zsV1o42NMVgyYvkbm9ST-69" vertex="1">
          <mxGeometry width="30" height="30" as="geometry">
            <mxRectangle width="30" height="30" as="alternateBounds" />
          </mxGeometry>
        </mxCell>
        <mxCell id="zsV1o42NMVgyYvkbm9ST-71" value="ip" style="shape=partialRectangle;connectable=0;fillColor=none;top=0;left=0;bottom=0;right=0;align=left;spacingLeft=6;overflow=hidden;whiteSpace=wrap;html=1;" parent="zsV1o42NMVgyYvkbm9ST-69" vertex="1">
          <mxGeometry x="30" width="150" height="30" as="geometry">
            <mxRectangle width="150" height="30" as="alternateBounds" />
          </mxGeometry>
        </mxCell>
        <mxCell id="zsV1o42NMVgyYvkbm9ST-72" value="" style="shape=tableRow;horizontal=0;startSize=0;swimlaneHead=0;swimlaneBody=0;fillColor=none;collapsible=0;dropTarget=0;points=[[0,0.5],[1,0.5]];portConstraint=eastwest;top=0;left=0;right=0;bottom=0;" parent="zsV1o42NMVgyYvkbm9ST-65" vertex="1">
          <mxGeometry y="90" width="180" height="89" as="geometry" />
        </mxCell>
        <mxCell id="zsV1o42NMVgyYvkbm9ST-73" value="" style="shape=partialRectangle;connectable=0;fillColor=none;top=0;left=0;bottom=0;right=0;editable=1;overflow=hidden;whiteSpace=wrap;html=1;" parent="zsV1o42NMVgyYvkbm9ST-72" vertex="1">
          <mxGeometry width="30" height="89" as="geometry">
            <mxRectangle width="30" height="89" as="alternateBounds" />
          </mxGeometry>
        </mxCell>
        <mxCell id="zsV1o42NMVgyYvkbm9ST-74" value="" style="shape=partialRectangle;connectable=0;fillColor=none;top=0;left=0;bottom=0;right=0;align=left;spacingLeft=6;overflow=hidden;whiteSpace=wrap;html=1;" parent="zsV1o42NMVgyYvkbm9ST-72" vertex="1">
          <mxGeometry x="30" width="150" height="89" as="geometry">
            <mxRectangle width="150" height="89" as="alternateBounds" />
          </mxGeometry>
        </mxCell>
        <mxCell id="zsV1o42NMVgyYvkbm9ST-79" value="shop_pid" style="shape=partialRectangle;connectable=0;fillColor=none;top=0;left=0;bottom=0;right=0;align=left;spacingLeft=6;overflow=hidden;whiteSpace=wrap;html=1;" parent="zsV1o42NMVgyYvkbm9ST-141" vertex="1">
          <mxGeometry x="30" y="90" width="150" height="30" as="geometry">
            <mxRectangle width="150" height="30" as="alternateBounds" />
          </mxGeometry>
        </mxCell>
        <mxCell id="zsV1o42NMVgyYvkbm9ST-82" value="type_id" style="shape=partialRectangle;connectable=0;fillColor=none;top=0;left=0;bottom=0;right=0;align=left;spacingLeft=6;overflow=hidden;whiteSpace=wrap;html=1;" parent="zsV1o42NMVgyYvkbm9ST-141" vertex="1">
          <mxGeometry x="30" y="120" width="150" height="30" as="geometry">
            <mxRectangle width="150" height="30" as="alternateBounds" />
          </mxGeometry>
        </mxCell>
        <mxCell id="zsV1o42NMVgyYvkbm9ST-168" value="FK" style="shape=partialRectangle;connectable=0;fillColor=none;top=0;left=0;bottom=0;right=0;fontStyle=1;overflow=hidden;whiteSpace=wrap;html=1;" parent="zsV1o42NMVgyYvkbm9ST-141" vertex="1">
          <mxGeometry y="90" width="30" height="30" as="geometry">
            <mxRectangle width="30" height="30" as="alternateBounds" />
          </mxGeometry>
        </mxCell>
        <mxCell id="zsV1o42NMVgyYvkbm9ST-173" value="FK" style="shape=partialRectangle;connectable=0;fillColor=none;top=0;left=0;bottom=0;right=0;fontStyle=1;overflow=hidden;whiteSpace=wrap;html=1;" parent="zsV1o42NMVgyYvkbm9ST-141" vertex="1">
          <mxGeometry y="120" width="30" height="30" as="geometry">
            <mxRectangle width="30" height="30" as="alternateBounds" />
          </mxGeometry>
        </mxCell>
        <mxCell id="zsV1o42NMVgyYvkbm9ST-143" value="" style="sketch=0;aspect=fixed;html=1;points=[];align=center;image;fontSize=12;image=img/lib/mscae/Key.svg;rotation=-90;" parent="zsV1o42NMVgyYvkbm9ST-147" vertex="1">
          <mxGeometry y="90" width="18.87" height="30.43" as="geometry" />
        </mxCell>
        <mxCell id="zsV1o42NMVgyYvkbm9ST-157" value="" style="group" parent="1" vertex="1" connectable="0">
          <mxGeometry x="659.9999999999999" y="279" width="215.7800000000001" height="135" as="geometry" />
        </mxCell>
        <mxCell id="zsV1o42NMVgyYvkbm9ST-37" value="types" style="shape=table;startSize=30;container=1;collapsible=1;childLayout=tableLayout;fixedRows=1;rowLines=0;fontStyle=1;align=center;resizeLast=1;html=1;" parent="zsV1o42NMVgyYvkbm9ST-157" vertex="1">
          <mxGeometry x="-13.09" y="-20" width="180" height="91" as="geometry" />
        </mxCell>
        <mxCell id="zsV1o42NMVgyYvkbm9ST-38" value="" style="shape=tableRow;horizontal=0;startSize=0;swimlaneHead=0;swimlaneBody=0;fillColor=none;collapsible=0;dropTarget=0;points=[[0,0.5],[1,0.5]];portConstraint=eastwest;top=0;left=0;right=0;bottom=1;" parent="zsV1o42NMVgyYvkbm9ST-37" vertex="1">
          <mxGeometry y="30" width="180" height="30" as="geometry" />
        </mxCell>
        <mxCell id="zsV1o42NMVgyYvkbm9ST-39" value="PK" style="shape=partialRectangle;connectable=0;fillColor=none;top=0;left=0;bottom=0;right=0;fontStyle=1;overflow=hidden;whiteSpace=wrap;html=1;" parent="zsV1o42NMVgyYvkbm9ST-38" vertex="1">
          <mxGeometry width="30" height="30" as="geometry">
            <mxRectangle width="30" height="30" as="alternateBounds" />
          </mxGeometry>
        </mxCell>
        <mxCell id="zsV1o42NMVgyYvkbm9ST-40" value="id" style="shape=partialRectangle;connectable=0;fillColor=none;top=0;left=0;bottom=0;right=0;align=left;spacingLeft=6;fontStyle=5;overflow=hidden;whiteSpace=wrap;html=1;" parent="zsV1o42NMVgyYvkbm9ST-38" vertex="1">
          <mxGeometry x="30" width="150" height="30" as="geometry">
            <mxRectangle width="150" height="30" as="alternateBounds" />
          </mxGeometry>
        </mxCell>
        <mxCell id="zsV1o42NMVgyYvkbm9ST-41" value="" style="shape=tableRow;horizontal=0;startSize=0;swimlaneHead=0;swimlaneBody=0;fillColor=none;collapsible=0;dropTarget=0;points=[[0,0.5],[1,0.5]];portConstraint=eastwest;top=0;left=0;right=0;bottom=0;" parent="zsV1o42NMVgyYvkbm9ST-37" vertex="1">
          <mxGeometry y="60" width="180" height="31" as="geometry" />
        </mxCell>
        <mxCell id="zsV1o42NMVgyYvkbm9ST-42" value="" style="shape=partialRectangle;connectable=0;fillColor=none;top=0;left=0;bottom=0;right=0;editable=1;overflow=hidden;whiteSpace=wrap;html=1;" parent="zsV1o42NMVgyYvkbm9ST-41" vertex="1">
          <mxGeometry width="30" height="31" as="geometry">
            <mxRectangle width="30" height="31" as="alternateBounds" />
          </mxGeometry>
        </mxCell>
        <mxCell id="zsV1o42NMVgyYvkbm9ST-43" value="" style="shape=partialRectangle;connectable=0;fillColor=none;top=0;left=0;bottom=0;right=0;align=left;spacingLeft=6;overflow=hidden;whiteSpace=wrap;html=1;" parent="zsV1o42NMVgyYvkbm9ST-41" vertex="1">
          <mxGeometry x="30" width="150" height="31" as="geometry">
            <mxRectangle width="150" height="31" as="alternateBounds" />
          </mxGeometry>
        </mxCell>
        <mxCell id="G-o0Ir6fuLIiL3Ky4G_D-50" value="type" style="shape=partialRectangle;connectable=0;fillColor=none;top=0;left=0;bottom=0;right=0;align=left;spacingLeft=6;overflow=hidden;whiteSpace=wrap;html=1;" parent="zsV1o42NMVgyYvkbm9ST-157" vertex="1">
          <mxGeometry x="16.910000000000082" y="40.20999999999998" width="150" height="30" as="geometry">
            <mxRectangle width="150" height="30" as="alternateBounds" />
          </mxGeometry>
        </mxCell>
        <mxCell id="zsV1o42NMVgyYvkbm9ST-163" value="" style="endArrow=none;html=1;rounded=0;entryX=0.365;entryY=-0.026;entryDx=0;entryDy=0;entryPerimeter=0;exitX=0;exitY=0.5;exitDx=0;exitDy=0;" parent="1" source="zsV1o42NMVgyYvkbm9ST-38" target="zsV1o42NMVgyYvkbm9ST-156" edge="1">
          <mxGeometry width="50" height="50" relative="1" as="geometry">
            <mxPoint x="590.78" y="345" as="sourcePoint" />
            <mxPoint x="664.22" y="520" as="targetPoint" />
          </mxGeometry>
        </mxCell>
        <mxCell id="zsV1o42NMVgyYvkbm9ST-164" value="" style="endArrow=none;html=1;rounded=0;exitX=1;exitY=0.5;exitDx=0;exitDy=0;entryX=0.445;entryY=-0.038;entryDx=0;entryDy=0;entryPerimeter=0;" parent="1" source="zsV1o42NMVgyYvkbm9ST-66" target="zsV1o42NMVgyYvkbm9ST-165" edge="1">
          <mxGeometry width="50" height="50" relative="1" as="geometry">
            <mxPoint x="601" y="325" as="sourcePoint" />
            <mxPoint x="650" y="170" as="targetPoint" />
          </mxGeometry>
        </mxCell>
        <mxCell id="zsV1o42NMVgyYvkbm9ST-165" value="" style="sketch=0;aspect=fixed;html=1;points=[];align=center;image;fontSize=12;image=img/lib/mscae/Key.svg;rotation=-90;" parent="1" vertex="1">
          <mxGeometry x="610" y="89.78999999999996" width="18.87" height="30.43" as="geometry" />
        </mxCell>
        <mxCell id="zsV1o42NMVgyYvkbm9ST-166" value="" style="sketch=0;aspect=fixed;html=1;points=[];align=center;image;fontSize=12;image=img/lib/mscae/Key.svg;rotation=90;" parent="1" vertex="1">
          <mxGeometry x="830" y="120.21999999999997" width="18.87" height="30.43" as="geometry" />
        </mxCell>
        <mxCell id="zsV1o42NMVgyYvkbm9ST-167" value="" style="endArrow=none;html=1;rounded=0;exitX=0;exitY=0.5;exitDx=0;exitDy=0;entryX=0.452;entryY=-0.061;entryDx=0;entryDy=0;entryPerimeter=0;" parent="1" source="zsV1o42NMVgyYvkbm9ST-92" target="zsV1o42NMVgyYvkbm9ST-166" edge="1">
          <mxGeometry width="50" height="50" relative="1" as="geometry">
            <mxPoint x="930" y="159" as="sourcePoint" />
            <mxPoint x="973" y="70" as="targetPoint" />
          </mxGeometry>
        </mxCell>
        <mxCell id="zsV1o42NMVgyYvkbm9ST-156" value="" style="sketch=0;aspect=fixed;html=1;points=[];align=center;image;fontSize=12;image=img/lib/mscae/Key.svg;rotation=91;" parent="1" vertex="1">
          <mxGeometry x="540" y="269.99999999999994" width="18.87" height="30.43" as="geometry" />
        </mxCell>
        <mxCell id="zsV1o42NMVgyYvkbm9ST-174" value="FK" style="shape=partialRectangle;connectable=0;fillColor=none;top=0;left=0;bottom=0;right=0;fontStyle=1;overflow=hidden;whiteSpace=wrap;html=1;" parent="1" vertex="1">
          <mxGeometry x="640" y="119.57" width="30" height="30" as="geometry">
            <mxRectangle width="30" height="30" as="alternateBounds" />
          </mxGeometry>
        </mxCell>
        <mxCell id="zsV1o42NMVgyYvkbm9ST-175" value="FK" style="shape=partialRectangle;connectable=0;fillColor=none;top=0;left=0;bottom=0;right=0;fontStyle=1;overflow=hidden;whiteSpace=wrap;html=1;" parent="1" vertex="1">
          <mxGeometry x="640" y="89.57" width="30" height="30" as="geometry">
            <mxRectangle width="30" height="30" as="alternateBounds" />
          </mxGeometry>
        </mxCell>
        <mxCell id="lvVK7Kbt0AySzbdY6c-X-12" value="" style="group" parent="1" vertex="1" connectable="0">
          <mxGeometry x="320" y="450" width="180" height="120.5" as="geometry" />
        </mxCell>
        <mxCell id="lvVK7Kbt0AySzbdY6c-X-13" value="" style="group" parent="lvVK7Kbt0AySzbdY6c-X-12" vertex="1" connectable="0">
          <mxGeometry x="10" y="10" width="180" height="120.5" as="geometry" />
        </mxCell>
        <mxCell id="lvVK7Kbt0AySzbdY6c-X-3" value="templates" style="shape=table;startSize=30;container=1;collapsible=1;childLayout=tableLayout;fixedRows=1;rowLines=0;fontStyle=1;align=center;resizeLast=1;html=1;" parent="lvVK7Kbt0AySzbdY6c-X-13" vertex="1">
          <mxGeometry width="180" height="90" as="geometry" />
        </mxCell>
        <mxCell id="lvVK7Kbt0AySzbdY6c-X-4" value="" style="shape=tableRow;horizontal=0;startSize=0;swimlaneHead=0;swimlaneBody=0;fillColor=none;collapsible=0;dropTarget=0;points=[[0,0.5],[1,0.5]];portConstraint=eastwest;top=0;left=0;right=0;bottom=1;" parent="lvVK7Kbt0AySzbdY6c-X-3" vertex="1">
          <mxGeometry y="30" width="180" height="30" as="geometry" />
        </mxCell>
        <mxCell id="lvVK7Kbt0AySzbdY6c-X-5" value="PK" style="shape=partialRectangle;connectable=0;fillColor=none;top=0;left=0;bottom=0;right=0;fontStyle=1;overflow=hidden;whiteSpace=wrap;html=1;" parent="lvVK7Kbt0AySzbdY6c-X-4" vertex="1">
          <mxGeometry width="30" height="30" as="geometry">
            <mxRectangle width="30" height="30" as="alternateBounds" />
          </mxGeometry>
        </mxCell>
        <mxCell id="lvVK7Kbt0AySzbdY6c-X-6" value="id" style="shape=partialRectangle;connectable=0;fillColor=none;top=0;left=0;bottom=0;right=0;align=left;spacingLeft=6;fontStyle=5;overflow=hidden;whiteSpace=wrap;html=1;" parent="lvVK7Kbt0AySzbdY6c-X-4" vertex="1">
          <mxGeometry x="30" width="150" height="30" as="geometry">
            <mxRectangle width="150" height="30" as="alternateBounds" />
          </mxGeometry>
        </mxCell>
        <mxCell id="lvVK7Kbt0AySzbdY6c-X-7" value="" style="shape=tableRow;horizontal=0;startSize=0;swimlaneHead=0;swimlaneBody=0;fillColor=none;collapsible=0;dropTarget=0;points=[[0,0.5],[1,0.5]];portConstraint=eastwest;top=0;left=0;right=0;bottom=0;" parent="lvVK7Kbt0AySzbdY6c-X-3" vertex="1">
          <mxGeometry y="60" width="180" height="30" as="geometry" />
        </mxCell>
        <mxCell id="lvVK7Kbt0AySzbdY6c-X-8" value="" style="shape=partialRectangle;connectable=0;fillColor=none;top=0;left=0;bottom=0;right=0;editable=1;overflow=hidden;whiteSpace=wrap;html=1;" parent="lvVK7Kbt0AySzbdY6c-X-7" vertex="1">
          <mxGeometry width="30" height="30" as="geometry">
            <mxRectangle width="30" height="30" as="alternateBounds" />
          </mxGeometry>
        </mxCell>
        <mxCell id="lvVK7Kbt0AySzbdY6c-X-9" value="" style="shape=partialRectangle;connectable=0;fillColor=none;top=0;left=0;bottom=0;right=0;align=left;spacingLeft=6;overflow=hidden;whiteSpace=wrap;html=1;" parent="lvVK7Kbt0AySzbdY6c-X-7" vertex="1">
          <mxGeometry x="30" width="150" height="30" as="geometry">
            <mxRectangle width="150" height="30" as="alternateBounds" />
          </mxGeometry>
        </mxCell>
        <mxCell id="lvVK7Kbt0AySzbdY6c-X-10" value="template" style="shape=partialRectangle;connectable=0;fillColor=none;top=0;left=0;bottom=0;right=0;align=left;spacingLeft=6;overflow=hidden;whiteSpace=wrap;html=1;" parent="lvVK7Kbt0AySzbdY6c-X-13" vertex="1">
          <mxGeometry x="30" y="60.5" width="150" height="30" as="geometry">
            <mxRectangle width="150" height="30" as="alternateBounds" />
          </mxGeometry>
        </mxCell>
        <mxCell id="5nh-abn0xY6gqfLPR4Zg-37" value="" style="group" parent="1" vertex="1" connectable="0">
          <mxGeometry x="559.9999999999999" y="444.5" width="213.5200000000001" height="90" as="geometry" />
        </mxCell>
        <mxCell id="5nh-abn0xY6gqfLPR4Zg-1" value="type_template" style="shape=table;startSize=30;container=1;collapsible=1;childLayout=tableLayout;fixedRows=1;rowLines=0;fontStyle=1;align=center;resizeLast=1;html=1;" parent="5nh-abn0xY6gqfLPR4Zg-37" vertex="1">
          <mxGeometry x="33.520000000000095" width="180" height="90" as="geometry" />
        </mxCell>
        <mxCell id="5nh-abn0xY6gqfLPR4Zg-2" value="" style="shape=tableRow;horizontal=0;startSize=0;swimlaneHead=0;swimlaneBody=0;fillColor=none;collapsible=0;dropTarget=0;points=[[0,0.5],[1,0.5]];portConstraint=eastwest;top=0;left=0;right=0;bottom=0;" parent="5nh-abn0xY6gqfLPR4Zg-1" vertex="1">
          <mxGeometry y="30" width="180" height="30" as="geometry" />
        </mxCell>
        <mxCell id="5nh-abn0xY6gqfLPR4Zg-3" value="" style="shape=partialRectangle;connectable=0;fillColor=none;top=0;left=0;bottom=0;right=0;editable=1;overflow=hidden;whiteSpace=wrap;html=1;" parent="5nh-abn0xY6gqfLPR4Zg-2" vertex="1">
          <mxGeometry width="30" height="30" as="geometry">
            <mxRectangle width="30" height="30" as="alternateBounds" />
          </mxGeometry>
        </mxCell>
        <mxCell id="5nh-abn0xY6gqfLPR4Zg-4" value="type_id" style="shape=partialRectangle;connectable=0;fillColor=none;top=0;left=0;bottom=0;right=0;align=left;spacingLeft=6;overflow=hidden;whiteSpace=wrap;html=1;" parent="5nh-abn0xY6gqfLPR4Zg-2" vertex="1">
          <mxGeometry x="30" width="150" height="30" as="geometry">
            <mxRectangle width="150" height="30" as="alternateBounds" />
          </mxGeometry>
        </mxCell>
        <mxCell id="5nh-abn0xY6gqfLPR4Zg-5" value="" style="shape=tableRow;horizontal=0;startSize=0;swimlaneHead=0;swimlaneBody=0;fillColor=none;collapsible=0;dropTarget=0;points=[[0,0.5],[1,0.5]];portConstraint=eastwest;top=0;left=0;right=0;bottom=0;" parent="5nh-abn0xY6gqfLPR4Zg-1" vertex="1">
          <mxGeometry y="60" width="180" height="30" as="geometry" />
        </mxCell>
        <mxCell id="5nh-abn0xY6gqfLPR4Zg-6" value="" style="shape=partialRectangle;connectable=0;fillColor=none;top=0;left=0;bottom=0;right=0;editable=1;overflow=hidden;whiteSpace=wrap;html=1;" parent="5nh-abn0xY6gqfLPR4Zg-5" vertex="1">
          <mxGeometry width="30" height="30" as="geometry">
            <mxRectangle width="30" height="30" as="alternateBounds" />
          </mxGeometry>
        </mxCell>
        <mxCell id="5nh-abn0xY6gqfLPR4Zg-7" value="template_id" style="shape=partialRectangle;connectable=0;fillColor=none;top=0;left=0;bottom=0;right=0;align=left;spacingLeft=6;overflow=hidden;whiteSpace=wrap;html=1;" parent="5nh-abn0xY6gqfLPR4Zg-5" vertex="1">
          <mxGeometry x="30" width="150" height="30" as="geometry">
            <mxRectangle width="150" height="30" as="alternateBounds" />
          </mxGeometry>
        </mxCell>
        <mxCell id="5nh-abn0xY6gqfLPR4Zg-32" value="" style="sketch=0;aspect=fixed;html=1;points=[];align=center;image;fontSize=12;image=img/lib/mscae/Key.svg;rotation=-90;" parent="5nh-abn0xY6gqfLPR4Zg-37" vertex="1">
          <mxGeometry x="5.780000000000086" y="59.569999999999936" width="18.87" height="30.43" as="geometry" />
        </mxCell>
        <mxCell id="5nh-abn0xY6gqfLPR4Zg-33" value="FK" style="shape=partialRectangle;connectable=0;fillColor=none;top=0;left=0;bottom=0;right=0;fontStyle=1;overflow=hidden;whiteSpace=wrap;html=1;" parent="5nh-abn0xY6gqfLPR4Zg-37" vertex="1">
          <mxGeometry x="35.780000000000086" y="29.569999999999993" width="30" height="30" as="geometry">
            <mxRectangle width="30" height="30" as="alternateBounds" />
          </mxGeometry>
        </mxCell>
        <mxCell id="5nh-abn0xY6gqfLPR4Zg-34" value="FK" style="shape=partialRectangle;connectable=0;fillColor=none;top=0;left=0;bottom=0;right=0;fontStyle=1;overflow=hidden;whiteSpace=wrap;html=1;" parent="5nh-abn0xY6gqfLPR4Zg-37" vertex="1">
          <mxGeometry x="35.780000000000086" y="59.56999999999999" width="30" height="30" as="geometry">
            <mxRectangle width="30" height="30" as="alternateBounds" />
          </mxGeometry>
        </mxCell>
        <mxCell id="5nh-abn0xY6gqfLPR4Zg-61" value="" style="sketch=0;aspect=fixed;html=1;points=[];align=center;image;fontSize=12;image=img/lib/mscae/Key.svg;rotation=-90;" parent="5nh-abn0xY6gqfLPR4Zg-37" vertex="1">
          <mxGeometry x="5.780000000000086" y="29.13999999999993" width="18.87" height="30.43" as="geometry" />
        </mxCell>
        <mxCell id="5nh-abn0xY6gqfLPR4Zg-38" value="" style="endArrow=none;html=1;rounded=0;exitX=0.61;exitY=-0.052;exitDx=0;exitDy=0;exitPerimeter=0;entryX=1;entryY=0.5;entryDx=0;entryDy=0;" parent="1" source="5nh-abn0xY6gqfLPR4Zg-32" target="lvVK7Kbt0AySzbdY6c-X-4" edge="1">
          <mxGeometry width="50" height="50" relative="1" as="geometry">
            <mxPoint x="657" y="314" as="sourcePoint" />
            <mxPoint x="490" y="500" as="targetPoint" />
          </mxGeometry>
        </mxCell>
        <mxCell id="5nh-abn0xY6gqfLPR4Zg-56" value="" style="group" parent="1" vertex="1" connectable="0">
          <mxGeometry x="70" y="380" width="214.65" height="90" as="geometry" />
        </mxCell>
        <mxCell id="5nh-abn0xY6gqfLPR4Zg-43" value="" style="sketch=0;aspect=fixed;html=1;points=[];align=center;image;fontSize=12;image=img/lib/mscae/Key.svg;rotation=90;" parent="5nh-abn0xY6gqfLPR4Zg-56" vertex="1">
          <mxGeometry x="190" y="59.56999999999999" width="18.87" height="30.43" as="geometry" />
        </mxCell>
        <mxCell id="5nh-abn0xY6gqfLPR4Zg-58" value="" style="group" parent="5nh-abn0xY6gqfLPR4Zg-56" vertex="1" connectable="0">
          <mxGeometry width="214.65" height="90" as="geometry" />
        </mxCell>
        <mxCell id="5nh-abn0xY6gqfLPR4Zg-39" value="" style="group" parent="5nh-abn0xY6gqfLPR4Zg-58" vertex="1" connectable="0">
          <mxGeometry width="180" height="90" as="geometry" />
        </mxCell>
        <mxCell id="5nh-abn0xY6gqfLPR4Zg-8" value="host_template" style="shape=table;startSize=30;container=1;collapsible=1;childLayout=tableLayout;fixedRows=1;rowLines=0;fontStyle=1;align=center;resizeLast=1;html=1;" parent="5nh-abn0xY6gqfLPR4Zg-39" vertex="1">
          <mxGeometry width="180" height="90" as="geometry" />
        </mxCell>
        <mxCell id="5nh-abn0xY6gqfLPR4Zg-9" value="" style="shape=tableRow;horizontal=0;startSize=0;swimlaneHead=0;swimlaneBody=0;fillColor=none;collapsible=0;dropTarget=0;points=[[0,0.5],[1,0.5]];portConstraint=eastwest;top=0;left=0;right=0;bottom=0;" parent="5nh-abn0xY6gqfLPR4Zg-8" vertex="1">
          <mxGeometry y="30" width="180" height="30" as="geometry" />
        </mxCell>
        <mxCell id="5nh-abn0xY6gqfLPR4Zg-10" value="" style="shape=partialRectangle;connectable=0;fillColor=none;top=0;left=0;bottom=0;right=0;editable=1;overflow=hidden;whiteSpace=wrap;html=1;" parent="5nh-abn0xY6gqfLPR4Zg-9" vertex="1">
          <mxGeometry width="30" height="30" as="geometry">
            <mxRectangle width="30" height="30" as="alternateBounds" />
          </mxGeometry>
        </mxCell>
        <mxCell id="5nh-abn0xY6gqfLPR4Zg-11" value="host_id" style="shape=partialRectangle;connectable=0;fillColor=none;top=0;left=0;bottom=0;right=0;align=left;spacingLeft=6;overflow=hidden;whiteSpace=wrap;html=1;" parent="5nh-abn0xY6gqfLPR4Zg-9" vertex="1">
          <mxGeometry x="30" width="150" height="30" as="geometry">
            <mxRectangle width="150" height="30" as="alternateBounds" />
          </mxGeometry>
        </mxCell>
        <mxCell id="5nh-abn0xY6gqfLPR4Zg-12" value="" style="shape=tableRow;horizontal=0;startSize=0;swimlaneHead=0;swimlaneBody=0;fillColor=none;collapsible=0;dropTarget=0;points=[[0,0.5],[1,0.5]];portConstraint=eastwest;top=0;left=0;right=0;bottom=0;" parent="5nh-abn0xY6gqfLPR4Zg-8" vertex="1">
          <mxGeometry y="60" width="180" height="30" as="geometry" />
        </mxCell>
        <mxCell id="5nh-abn0xY6gqfLPR4Zg-13" value="" style="shape=partialRectangle;connectable=0;fillColor=none;top=0;left=0;bottom=0;right=0;editable=1;overflow=hidden;whiteSpace=wrap;html=1;" parent="5nh-abn0xY6gqfLPR4Zg-12" vertex="1">
          <mxGeometry width="30" height="30" as="geometry">
            <mxRectangle width="30" height="30" as="alternateBounds" />
          </mxGeometry>
        </mxCell>
        <mxCell id="5nh-abn0xY6gqfLPR4Zg-14" value="template_id" style="shape=partialRectangle;connectable=0;fillColor=none;top=0;left=0;bottom=0;right=0;align=left;spacingLeft=6;overflow=hidden;whiteSpace=wrap;html=1;" parent="5nh-abn0xY6gqfLPR4Zg-12" vertex="1">
          <mxGeometry x="30" width="150" height="30" as="geometry">
            <mxRectangle width="150" height="30" as="alternateBounds" />
          </mxGeometry>
        </mxCell>
        <mxCell id="5nh-abn0xY6gqfLPR4Zg-35" value="FK" style="shape=partialRectangle;connectable=0;fillColor=none;top=0;left=0;bottom=0;right=0;fontStyle=1;overflow=hidden;whiteSpace=wrap;html=1;" parent="5nh-abn0xY6gqfLPR4Zg-39" vertex="1">
          <mxGeometry y="30" width="30" height="30" as="geometry">
            <mxRectangle width="30" height="30" as="alternateBounds" />
          </mxGeometry>
        </mxCell>
        <mxCell id="5nh-abn0xY6gqfLPR4Zg-36" value="FK" style="shape=partialRectangle;connectable=0;fillColor=none;top=0;left=0;bottom=0;right=0;fontStyle=1;overflow=hidden;whiteSpace=wrap;html=1;" parent="5nh-abn0xY6gqfLPR4Zg-39" vertex="1">
          <mxGeometry y="59.99999999999994" width="30" height="30" as="geometry">
            <mxRectangle width="30" height="30" as="alternateBounds" />
          </mxGeometry>
        </mxCell>
        <mxCell id="5nh-abn0xY6gqfLPR4Zg-55" value="" style="group" parent="5nh-abn0xY6gqfLPR4Zg-39" vertex="1" connectable="0">
          <mxGeometry x="-35.78" width="215.78" height="90" as="geometry" />
        </mxCell>
        <mxCell id="5nh-abn0xY6gqfLPR4Zg-45" value="FK" style="shape=partialRectangle;connectable=0;fillColor=none;top=0;left=0;bottom=0;right=0;fontStyle=1;overflow=hidden;whiteSpace=wrap;html=1;" parent="5nh-abn0xY6gqfLPR4Zg-55" vertex="1">
          <mxGeometry x="35.78" y="59.99999999999994" width="30" height="30" as="geometry">
            <mxRectangle width="30" height="30" as="alternateBounds" />
          </mxGeometry>
        </mxCell>
        <mxCell id="5nh-abn0xY6gqfLPR4Zg-46" value="FK" style="shape=partialRectangle;connectable=0;fillColor=none;top=0;left=0;bottom=0;right=0;fontStyle=1;overflow=hidden;whiteSpace=wrap;html=1;" parent="5nh-abn0xY6gqfLPR4Zg-55" vertex="1">
          <mxGeometry x="35.78" y="30" width="30" height="30" as="geometry">
            <mxRectangle width="30" height="30" as="alternateBounds" />
          </mxGeometry>
        </mxCell>
        <mxCell id="5nh-abn0xY6gqfLPR4Zg-47" value="host_template" style="shape=table;startSize=30;container=1;collapsible=1;childLayout=tableLayout;fixedRows=1;rowLines=0;fontStyle=1;align=center;resizeLast=1;html=1;" parent="5nh-abn0xY6gqfLPR4Zg-55" vertex="1">
          <mxGeometry x="35.78" width="180" height="90" as="geometry" />
        </mxCell>
        <mxCell id="5nh-abn0xY6gqfLPR4Zg-48" value="" style="shape=tableRow;horizontal=0;startSize=0;swimlaneHead=0;swimlaneBody=0;fillColor=none;collapsible=0;dropTarget=0;points=[[0,0.5],[1,0.5]];portConstraint=eastwest;top=0;left=0;right=0;bottom=0;" parent="5nh-abn0xY6gqfLPR4Zg-47" vertex="1">
          <mxGeometry y="30" width="180" height="30" as="geometry" />
        </mxCell>
        <mxCell id="5nh-abn0xY6gqfLPR4Zg-49" value="" style="shape=partialRectangle;connectable=0;fillColor=none;top=0;left=0;bottom=0;right=0;editable=1;overflow=hidden;whiteSpace=wrap;html=1;" parent="5nh-abn0xY6gqfLPR4Zg-48" vertex="1">
          <mxGeometry width="30" height="30" as="geometry">
            <mxRectangle width="30" height="30" as="alternateBounds" />
          </mxGeometry>
        </mxCell>
        <mxCell id="5nh-abn0xY6gqfLPR4Zg-50" value="host_id" style="shape=partialRectangle;connectable=0;fillColor=none;top=0;left=0;bottom=0;right=0;align=left;spacingLeft=6;overflow=hidden;whiteSpace=wrap;html=1;" parent="5nh-abn0xY6gqfLPR4Zg-48" vertex="1">
          <mxGeometry x="30" width="150" height="30" as="geometry">
            <mxRectangle width="150" height="30" as="alternateBounds" />
          </mxGeometry>
        </mxCell>
        <mxCell id="5nh-abn0xY6gqfLPR4Zg-51" value="" style="shape=tableRow;horizontal=0;startSize=0;swimlaneHead=0;swimlaneBody=0;fillColor=none;collapsible=0;dropTarget=0;points=[[0,0.5],[1,0.5]];portConstraint=eastwest;top=0;left=0;right=0;bottom=0;" parent="5nh-abn0xY6gqfLPR4Zg-47" vertex="1">
          <mxGeometry y="60" width="180" height="30" as="geometry" />
        </mxCell>
        <mxCell id="5nh-abn0xY6gqfLPR4Zg-52" value="" style="shape=partialRectangle;connectable=0;fillColor=none;top=0;left=0;bottom=0;right=0;editable=1;overflow=hidden;whiteSpace=wrap;html=1;" parent="5nh-abn0xY6gqfLPR4Zg-51" vertex="1">
          <mxGeometry width="30" height="30" as="geometry">
            <mxRectangle width="30" height="30" as="alternateBounds" />
          </mxGeometry>
        </mxCell>
        <mxCell id="5nh-abn0xY6gqfLPR4Zg-53" value="template_id" style="shape=partialRectangle;connectable=0;fillColor=none;top=0;left=0;bottom=0;right=0;align=left;spacingLeft=6;overflow=hidden;whiteSpace=wrap;html=1;" parent="5nh-abn0xY6gqfLPR4Zg-51" vertex="1">
          <mxGeometry x="30" width="150" height="30" as="geometry">
            <mxRectangle width="150" height="30" as="alternateBounds" />
          </mxGeometry>
        </mxCell>
        <mxCell id="5nh-abn0xY6gqfLPR4Zg-54" value="" style="sketch=0;aspect=fixed;html=1;points=[];align=center;image;fontSize=12;image=img/lib/mscae/Key.svg;rotation=90;" parent="5nh-abn0xY6gqfLPR4Zg-58" vertex="1">
          <mxGeometry x="190" y="34" width="18.87" height="30.43" as="geometry" />
        </mxCell>
        <mxCell id="5nh-abn0xY6gqfLPR4Zg-57" value="" style="endArrow=none;html=1;rounded=0;exitX=0;exitY=0.5;exitDx=0;exitDy=0;entryX=0.407;entryY=0.046;entryDx=0;entryDy=0;entryPerimeter=0;" parent="1" source="lvVK7Kbt0AySzbdY6c-X-4" target="5nh-abn0xY6gqfLPR4Zg-43" edge="1">
          <mxGeometry width="50" height="50" relative="1" as="geometry">
            <mxPoint x="568" y="527" as="sourcePoint" />
            <mxPoint x="520" y="515" as="targetPoint" />
          </mxGeometry>
        </mxCell>
        <mxCell id="5nh-abn0xY6gqfLPR4Zg-59" value="" style="endArrow=none;html=1;rounded=0;exitX=0;exitY=0.5;exitDx=0;exitDy=0;entryX=0.521;entryY=0.024;entryDx=0;entryDy=0;entryPerimeter=0;jumpStyle=arc;" parent="1" source="zsV1o42NMVgyYvkbm9ST-66" target="5nh-abn0xY6gqfLPR4Zg-54" edge="1">
          <mxGeometry width="50" height="50" relative="1" as="geometry">
            <mxPoint x="340" y="515" as="sourcePoint" />
            <mxPoint x="293" y="463" as="targetPoint" />
            <Array as="points">
              <mxPoint x="284" y="270" />
            </Array>
          </mxGeometry>
        </mxCell>
        <mxCell id="5nh-abn0xY6gqfLPR4Zg-62" value="" style="endArrow=none;html=1;rounded=0;entryX=0.466;entryY=0;entryDx=0;entryDy=0;entryPerimeter=0;exitX=0;exitY=0.5;exitDx=0;exitDy=0;" parent="1" source="zsV1o42NMVgyYvkbm9ST-38" target="5nh-abn0xY6gqfLPR4Zg-61" edge="1">
          <mxGeometry width="50" height="50" relative="1" as="geometry">
            <mxPoint x="657" y="314" as="sourcePoint" />
            <mxPoint x="575" y="293" as="targetPoint" />
            <Array as="points">
              <mxPoint x="560" y="380" />
            </Array>
          </mxGeometry>
        </mxCell>
        <mxCell id="rLGd0RH0_CjI1xr4IAlU-1" value="" style="group" parent="1" vertex="1" connectable="0">
          <mxGeometry x="890" y="335" width="180" height="325" as="geometry" />
        </mxCell>
        <mxCell id="rLGd0RH0_CjI1xr4IAlU-2" value="recipients" style="shape=table;startSize=30;container=1;collapsible=1;childLayout=tableLayout;fixedRows=1;rowLines=0;fontStyle=1;align=center;resizeLast=1;html=1;" parent="rLGd0RH0_CjI1xr4IAlU-1" vertex="1">
          <mxGeometry width="180" height="120" as="geometry" />
        </mxCell>
        <mxCell id="rLGd0RH0_CjI1xr4IAlU-3" value="" style="shape=tableRow;horizontal=0;startSize=0;swimlaneHead=0;swimlaneBody=0;fillColor=none;collapsible=0;dropTarget=0;points=[[0,0.5],[1,0.5]];portConstraint=eastwest;top=0;left=0;right=0;bottom=1;" parent="rLGd0RH0_CjI1xr4IAlU-2" vertex="1">
          <mxGeometry y="30" width="180" height="30" as="geometry" />
        </mxCell>
        <mxCell id="rLGd0RH0_CjI1xr4IAlU-4" value="PK" style="shape=partialRectangle;connectable=0;fillColor=none;top=0;left=0;bottom=0;right=0;fontStyle=1;overflow=hidden;whiteSpace=wrap;html=1;" parent="rLGd0RH0_CjI1xr4IAlU-3" vertex="1">
          <mxGeometry width="30" height="30" as="geometry">
            <mxRectangle width="30" height="30" as="alternateBounds" />
          </mxGeometry>
        </mxCell>
        <mxCell id="rLGd0RH0_CjI1xr4IAlU-5" value="id" style="shape=partialRectangle;connectable=0;fillColor=none;top=0;left=0;bottom=0;right=0;align=left;spacingLeft=6;fontStyle=5;overflow=hidden;whiteSpace=wrap;html=1;" parent="rLGd0RH0_CjI1xr4IAlU-3" vertex="1">
          <mxGeometry x="30" width="150" height="30" as="geometry">
            <mxRectangle width="150" height="30" as="alternateBounds" />
          </mxGeometry>
        </mxCell>
        <mxCell id="rLGd0RH0_CjI1xr4IAlU-6" value="" style="shape=tableRow;horizontal=0;startSize=0;swimlaneHead=0;swimlaneBody=0;fillColor=none;collapsible=0;dropTarget=0;points=[[0,0.5],[1,0.5]];portConstraint=eastwest;top=0;left=0;right=0;bottom=0;" parent="rLGd0RH0_CjI1xr4IAlU-2" vertex="1">
          <mxGeometry y="60" width="180" height="30" as="geometry" />
        </mxCell>
        <mxCell id="rLGd0RH0_CjI1xr4IAlU-7" value="" style="shape=partialRectangle;connectable=0;fillColor=none;top=0;left=0;bottom=0;right=0;editable=1;overflow=hidden;whiteSpace=wrap;html=1;" parent="rLGd0RH0_CjI1xr4IAlU-6" vertex="1">
          <mxGeometry width="30" height="30" as="geometry">
            <mxRectangle width="30" height="30" as="alternateBounds" />
          </mxGeometry>
        </mxCell>
        <mxCell id="rLGd0RH0_CjI1xr4IAlU-8" value="" style="shape=partialRectangle;connectable=0;fillColor=none;top=0;left=0;bottom=0;right=0;align=left;spacingLeft=6;overflow=hidden;whiteSpace=wrap;html=1;" parent="rLGd0RH0_CjI1xr4IAlU-6" vertex="1">
          <mxGeometry x="30" width="150" height="30" as="geometry">
            <mxRectangle width="150" height="30" as="alternateBounds" />
          </mxGeometry>
        </mxCell>
        <mxCell id="rLGd0RH0_CjI1xr4IAlU-9" value="" style="shape=tableRow;horizontal=0;startSize=0;swimlaneHead=0;swimlaneBody=0;fillColor=none;collapsible=0;dropTarget=0;points=[[0,0.5],[1,0.5]];portConstraint=eastwest;top=0;left=0;right=0;bottom=0;" parent="rLGd0RH0_CjI1xr4IAlU-2" vertex="1">
          <mxGeometry y="90" width="180" height="30" as="geometry" />
        </mxCell>
        <mxCell id="rLGd0RH0_CjI1xr4IAlU-10" value="" style="shape=partialRectangle;connectable=0;fillColor=none;top=0;left=0;bottom=0;right=0;editable=1;overflow=hidden;whiteSpace=wrap;html=1;" parent="rLGd0RH0_CjI1xr4IAlU-9" vertex="1">
          <mxGeometry width="30" height="30" as="geometry">
            <mxRectangle width="30" height="30" as="alternateBounds" />
          </mxGeometry>
        </mxCell>
        <mxCell id="rLGd0RH0_CjI1xr4IAlU-11" value="" style="shape=partialRectangle;connectable=0;fillColor=none;top=0;left=0;bottom=0;right=0;align=left;spacingLeft=6;overflow=hidden;whiteSpace=wrap;html=1;" parent="rLGd0RH0_CjI1xr4IAlU-9" vertex="1">
          <mxGeometry x="30" width="150" height="30" as="geometry">
            <mxRectangle width="150" height="30" as="alternateBounds" />
          </mxGeometry>
        </mxCell>
        <mxCell id="rLGd0RH0_CjI1xr4IAlU-12" value="recipient" style="shape=partialRectangle;connectable=0;fillColor=none;top=0;left=0;bottom=0;right=0;align=left;spacingLeft=6;overflow=hidden;whiteSpace=wrap;html=1;" parent="rLGd0RH0_CjI1xr4IAlU-1" vertex="1">
          <mxGeometry x="30" y="60" width="150" height="30" as="geometry">
            <mxRectangle width="150" height="30" as="alternateBounds" />
          </mxGeometry>
        </mxCell>
        <mxCell id="rLGd0RH0_CjI1xr4IAlU-14" value="type" style="shape=partialRectangle;connectable=0;fillColor=none;top=0;left=0;bottom=0;right=0;align=left;spacingLeft=6;overflow=hidden;whiteSpace=wrap;html=1;" parent="rLGd0RH0_CjI1xr4IAlU-1" vertex="1">
          <mxGeometry x="30" y="90" width="150" height="30" as="geometry">
            <mxRectangle width="150" height="30" as="alternateBounds" />
          </mxGeometry>
        </mxCell>
        <mxCell id="rLGd0RH0_CjI1xr4IAlU-15" value="" style="shape=partialRectangle;connectable=0;fillColor=none;top=0;left=0;bottom=0;right=0;fontStyle=1;overflow=hidden;whiteSpace=wrap;html=1;" parent="rLGd0RH0_CjI1xr4IAlU-1" vertex="1">
          <mxGeometry x="-1.4210854715202004e-14" y="120" width="30" height="30" as="geometry">
            <mxRectangle width="30" height="30" as="alternateBounds" />
          </mxGeometry>
        </mxCell>
        <mxCell id="rLGd0RH0_CjI1xr4IAlU-16" value="" style="shape=partialRectangle;connectable=0;fillColor=none;top=0;left=0;bottom=0;right=0;fontStyle=1;overflow=hidden;whiteSpace=wrap;html=1;" parent="rLGd0RH0_CjI1xr4IAlU-1" vertex="1">
          <mxGeometry x="-1.4210854715202004e-14" y="150" width="30" height="30" as="geometry">
            <mxRectangle width="30" height="30" as="alternateBounds" />
          </mxGeometry>
        </mxCell>
        <mxCell id="Rp4W-KgQvPlKaPvV3pxr-1" value="" style="group" vertex="1" connectable="0" parent="rLGd0RH0_CjI1xr4IAlU-1">
          <mxGeometry y="145" width="180" height="180" as="geometry" />
        </mxCell>
        <mxCell id="Rp4W-KgQvPlKaPvV3pxr-2" value="zabbix_params" style="shape=table;startSize=30;container=1;collapsible=1;childLayout=tableLayout;fixedRows=1;rowLines=0;fontStyle=1;align=center;resizeLast=1;html=1;" vertex="1" parent="Rp4W-KgQvPlKaPvV3pxr-1">
          <mxGeometry width="180" height="120" as="geometry" />
        </mxCell>
        <mxCell id="Rp4W-KgQvPlKaPvV3pxr-3" value="" style="shape=tableRow;horizontal=0;startSize=0;swimlaneHead=0;swimlaneBody=0;fillColor=none;collapsible=0;dropTarget=0;points=[[0,0.5],[1,0.5]];portConstraint=eastwest;top=0;left=0;right=0;bottom=1;" vertex="1" parent="Rp4W-KgQvPlKaPvV3pxr-2">
          <mxGeometry y="30" width="180" height="30" as="geometry" />
        </mxCell>
        <mxCell id="Rp4W-KgQvPlKaPvV3pxr-4" value="PK" style="shape=partialRectangle;connectable=0;fillColor=none;top=0;left=0;bottom=0;right=0;fontStyle=1;overflow=hidden;whiteSpace=wrap;html=1;" vertex="1" parent="Rp4W-KgQvPlKaPvV3pxr-3">
          <mxGeometry width="30" height="30" as="geometry">
            <mxRectangle width="30" height="30" as="alternateBounds" />
          </mxGeometry>
        </mxCell>
        <mxCell id="Rp4W-KgQvPlKaPvV3pxr-5" value="id" style="shape=partialRectangle;connectable=0;fillColor=none;top=0;left=0;bottom=0;right=0;align=left;spacingLeft=6;fontStyle=5;overflow=hidden;whiteSpace=wrap;html=1;" vertex="1" parent="Rp4W-KgQvPlKaPvV3pxr-3">
          <mxGeometry x="30" width="150" height="30" as="geometry">
            <mxRectangle width="150" height="30" as="alternateBounds" />
          </mxGeometry>
        </mxCell>
        <mxCell id="Rp4W-KgQvPlKaPvV3pxr-6" value="" style="shape=tableRow;horizontal=0;startSize=0;swimlaneHead=0;swimlaneBody=0;fillColor=none;collapsible=0;dropTarget=0;points=[[0,0.5],[1,0.5]];portConstraint=eastwest;top=0;left=0;right=0;bottom=0;" vertex="1" parent="Rp4W-KgQvPlKaPvV3pxr-2">
          <mxGeometry y="60" width="180" height="30" as="geometry" />
        </mxCell>
        <mxCell id="Rp4W-KgQvPlKaPvV3pxr-7" value="" style="shape=partialRectangle;connectable=0;fillColor=none;top=0;left=0;bottom=0;right=0;editable=1;overflow=hidden;whiteSpace=wrap;html=1;" vertex="1" parent="Rp4W-KgQvPlKaPvV3pxr-6">
          <mxGeometry width="30" height="30" as="geometry">
            <mxRectangle width="30" height="30" as="alternateBounds" />
          </mxGeometry>
        </mxCell>
        <mxCell id="Rp4W-KgQvPlKaPvV3pxr-8" value="" style="shape=partialRectangle;connectable=0;fillColor=none;top=0;left=0;bottom=0;right=0;align=left;spacingLeft=6;overflow=hidden;whiteSpace=wrap;html=1;" vertex="1" parent="Rp4W-KgQvPlKaPvV3pxr-6">
          <mxGeometry x="30" width="150" height="30" as="geometry">
            <mxRectangle width="150" height="30" as="alternateBounds" />
          </mxGeometry>
        </mxCell>
        <mxCell id="Rp4W-KgQvPlKaPvV3pxr-9" value="" style="shape=tableRow;horizontal=0;startSize=0;swimlaneHead=0;swimlaneBody=0;fillColor=none;collapsible=0;dropTarget=0;points=[[0,0.5],[1,0.5]];portConstraint=eastwest;top=0;left=0;right=0;bottom=0;" vertex="1" parent="Rp4W-KgQvPlKaPvV3pxr-2">
          <mxGeometry y="90" width="180" height="30" as="geometry" />
        </mxCell>
        <mxCell id="Rp4W-KgQvPlKaPvV3pxr-10" value="" style="shape=partialRectangle;connectable=0;fillColor=none;top=0;left=0;bottom=0;right=0;editable=1;overflow=hidden;whiteSpace=wrap;html=1;" vertex="1" parent="Rp4W-KgQvPlKaPvV3pxr-9">
          <mxGeometry width="30" height="30" as="geometry">
            <mxRectangle width="30" height="30" as="alternateBounds" />
          </mxGeometry>
        </mxCell>
        <mxCell id="Rp4W-KgQvPlKaPvV3pxr-11" value="" style="shape=partialRectangle;connectable=0;fillColor=none;top=0;left=0;bottom=0;right=0;align=left;spacingLeft=6;overflow=hidden;whiteSpace=wrap;html=1;" vertex="1" parent="Rp4W-KgQvPlKaPvV3pxr-9">
          <mxGeometry x="30" width="150" height="30" as="geometry">
            <mxRectangle width="150" height="30" as="alternateBounds" />
          </mxGeometry>
        </mxCell>
        <mxCell id="Rp4W-KgQvPlKaPvV3pxr-12" value="address" style="shape=partialRectangle;connectable=0;fillColor=none;top=0;left=0;bottom=0;right=0;align=left;spacingLeft=6;overflow=hidden;whiteSpace=wrap;html=1;" vertex="1" parent="Rp4W-KgQvPlKaPvV3pxr-1">
          <mxGeometry x="30" y="60" width="150" height="30" as="geometry">
            <mxRectangle width="150" height="30" as="alternateBounds" />
          </mxGeometry>
        </mxCell>
        <mxCell id="Rp4W-KgQvPlKaPvV3pxr-13" value="version" style="shape=partialRectangle;connectable=0;fillColor=none;top=0;left=0;bottom=0;right=0;align=left;spacingLeft=6;overflow=hidden;whiteSpace=wrap;html=1;" vertex="1" parent="Rp4W-KgQvPlKaPvV3pxr-1">
          <mxGeometry x="30" y="90" width="150" height="30" as="geometry">
            <mxRectangle width="150" height="30" as="alternateBounds" />
          </mxGeometry>
        </mxCell>
        <mxCell id="Rp4W-KgQvPlKaPvV3pxr-14" value="" style="shape=partialRectangle;connectable=0;fillColor=none;top=0;left=0;bottom=0;right=0;fontStyle=1;overflow=hidden;whiteSpace=wrap;html=1;" vertex="1" parent="Rp4W-KgQvPlKaPvV3pxr-1">
          <mxGeometry x="-1.4210854715202004e-14" y="120" width="30" height="30" as="geometry">
            <mxRectangle width="30" height="30" as="alternateBounds" />
          </mxGeometry>
        </mxCell>
        <mxCell id="Rp4W-KgQvPlKaPvV3pxr-15" value="" style="shape=partialRectangle;connectable=0;fillColor=none;top=0;left=0;bottom=0;right=0;fontStyle=1;overflow=hidden;whiteSpace=wrap;html=1;" vertex="1" parent="Rp4W-KgQvPlKaPvV3pxr-1">
          <mxGeometry x="-1.4210854715202004e-14" y="150" width="30" height="30" as="geometry">
            <mxRectangle width="30" height="30" as="alternateBounds" />
          </mxGeometry>
        </mxCell>
      </root>
    </mxGraphModel>
  </diagram>
</mxfile>
